# File created by Blade
# Date/Time:  Thu Jan 22 16:52:56 2015
# Frame Rate: 120.000 fps
#------------------------------------------------------
:FULLY-SPECIFIED
:DEGREES
683
root 3.232471 3.369563 -0.828056 -45.097149 -0.119786 -1.707897
RightUpLeg -33.482328 -31.608592 -32.458335
RightLeg 3.164155 -0.000000 -0.000000
RightFoot 2.699196 -32.599437 34.247539
RightToeBase 7.875709 -0.000000 -0.000000
LeftUpLeg -39.098111 19.828036 24.350559
LeftLeg 1.186804 -0.000000 -0.000000
LeftFoot 4.005437 21.678478 -30.676996
LeftToeBase -2.913926 -0.000000 0.000000
Spine 72.353024 -4.438554 -3.161663
RightShoulder 5.820319 -18.705098 -27.852491
RightArm 12.555247 8.918517 49.360475
RightForeArm 18.162456 -0.000000 90.053964
RightHand 1.721330 -0.000000 -3.699094
RightHandThumb1 -24.326973 -0.000000 -32.862282
LeftShoulder -17.546066 35.022396 12.134402
LeftArm 40.950675 11.394356 -35.093936
LeftForeArm 37.071745 -0.000000 53.448442
LeftHand -14.370847 -0.000000 -26.371525
LeftHandThumb1 -26.253704 0.000000 33.147579
Head 23.560762 13.029973 7.060518
684
root 3.229715 3.365232 -0.827713 -45.260041 -0.161877 -1.684090
RightUpLeg -33.518324 -31.607627 -32.427208
RightLeg 3.407416 -0.000000 -0.000000
RightFoot 2.544774 -32.585286 34.555462
RightToeBase 8.013782 -0.000000 -0.000000
LeftUpLeg -38.901034 19.727090 24.485393
LeftLeg 1.181655 -0.000000 -0.000000
LeftFoot 4.322469 21.574129 -30.611071
LeftToeBase -2.628068 -0.000000 0.000000
Spine 72.298787 -4.326317 -3.101751
RightShoulder 6.102783 -18.164399 -27.396467
RightArm 13.634859 9.896885 49.200145
RightForeArm 17.809370 -0.000000 89.170082
RightHand 1.911123 -0.000000 -4.790222
RightHandThumb1 -24.326973 -0.000000 -32.862282
LeftShoulder -17.250376 34.317985 12.082740
LeftArm 41.334313 9.857449 -35.876869
LeftForeArm 38.581057 -0.000000 51.744141
LeftHand -14.374039 0.000000 -24.561642
LeftHandThumb1 -26.253704 0.000000 33.147579
Head 23.195280 12.901684 7.058630
685
root 3.228223 3.359526 -0.825936 -45.428248 -0.199394 -1.652612
RightUpLeg -33.619412 -31.687087 -32.359373
RightLeg 3.730462 -0.000000 -0.000000
RightFoot 2.363833 -32.560659 34.905622
RightToeBase 8.126259 -0.000000 -0.000000
LeftUpLeg -38.695134 19.659085 24.586534
LeftLeg 1.149243 -0.000000 -0.000000
LeftFoot 4.609910 21.466155 -30.614954
LeftToeBase -2.554571 -0.000000 0.000000
Spine 72.229704 -4.201536 -3.021630
RightShoulder 6.362547 -17.424664 -26.946566
RightArm 14.620641 10.743188 49.185795
RightForeArm 17.513105 -0.000000 88.212213
RightHand 1.927007 -0.000000 -5.430777
RightHandThumb1 -24.326973 -0.000000 -32.862282
LeftShoulder -16.914565 33.587857 12.097232
LeftArm 41.800779 8.274295 -36.887739
LeftForeArm 39.744486 0.000000 49.892440
LeftHand -14.543838 -0.000000 -22.644395
LeftHandThumb1 -26.253704 0.000000 33.147579
Head 22.843642 12.762747 7.071882
686
root 3.227217 3.352597 -0.824948 -45.598889 -0.225874 -1.638177
RightUpLeg -33.760136 -31.873130 -32.236460
RightLeg 4.098647 -0.000000 -0.000000
RightFoot 2.171362 -32.526413 35.276234
RightToeBase 8.223811 -0.000000 -0.000000
LeftUpLeg -38.490197 19.561963 24.692951
LeftLeg 1.097899 -0.000000 -0.000000
LeftFoot 4.907556 21.392946 -30.640821
LeftToeBase -2.424509 -0.000000 0.000000
Spine 72.165465 -4.111103 -2.918616
RightShoulder 6.651120 -16.591075 -26.568259
RightArm 15.514110 11.419741 49.276149
RightForeArm 16.942296 -0.000000 87.269189
RightHand 1.962204 0.000000 -5.976944
RightHandThumb1 -24.326973 -0.000000 -32.862282
LeftShoulder -16.519610 32.776211 12.122092
LeftArm 42.226190 6.704066 -37.981234
LeftForeArm 40.478912 0.000000 48.029801
LeftHand -15.133822 -0.000000 -20.568168
LeftHandThumb1 -26.253704 0.000000 33.147579
Head 22.437923 12.583887 7.023557
687
root 3.226295 3.341388 -0.824145 -45.741189 -0.236533 -1.631469
RightUpLeg -33.883034 -31.906935 -32.255765
RightLeg 4.551593 -0.000000 -0.000000
RightFoot 1.781083 -32.647661 35.772386
RightToeBase 8.300335 -0.000000 -0.000000
LeftUpLeg -38.322194 19.447370 24.799089
LeftLeg 1.053924 -0.000000 -0.000000
LeftFoot 5.091177 21.328885 -30.756143
LeftToeBase -2.360886 -0.000000 0.000000
Spine 72.063765 -4.028428 -2.839120
RightShoulder 6.956311 -15.900896 -26.195764
RightArm 16.522543 12.024625 49.381119
RightForeArm 16.426334 0.000000 86.304752
RightHand 2.179579 0.000000 -6.609783
RightHandThumb1 -24.326973 -0.000000 -32.862282
LeftShoulder -16.178578 32.073709 12.158661
LeftArm 42.767172 4.990142 -39.317228
LeftForeArm 40.523985 0.000000 46.209038
LeftHand -15.602604 -0.000000 -18.433566
LeftHandThumb1 -26.253704 0.000000 33.147579
Head 22.042764 12.467511 7.024214
688
root 3.213155 3.340069 -0.827212 -45.967048 -0.366244 -1.566787
RightUpLeg -34.010878 -31.831387 -32.164308
RightLeg 4.960343 -0.000000 -0.000000
RightFoot 1.458805 -32.804079 36.028243
RightToeBase 8.439767 -0.000000 -0.000000
LeftUpLeg -38.005271 19.560320 24.907919
LeftLeg 0.963673 -0.000000 -0.000000
LeftFoot 5.320007 21.136432 -30.881545
LeftToeBase -2.464594 -0.000000 0.000000
Spine 72.089891 -3.792814 -2.759757
RightShoulder 7.369967 -15.044173 -25.891571
RightArm 17.325850 12.481520 49.599144
RightForeArm 15.532701 0.000000 85.428160
RightHand 2.161125 0.000000 -7.355579
RightHandThumb1 -24.326973 -0.000000 -32.862282
LeftShoulder -15.872692 31.374571 12.282237
LeftArm 43.411354 3.268079 -40.864468
LeftForeArm 40.526657 -0.000000 44.333797
LeftHand -16.174056 -0.000000 -16.325203
LeftHandThumb1 -26.253704 0.000000 33.147579
Head 21.552967 12.362221 7.034897
689
root 3.205335 3.343772 -0.830388 -46.248672 -0.476197 -1.499456
RightUpLeg -34.105244 -31.822766 -32.086377
RightLeg 5.400467 -0.000000 -0.000000
RightFoot 1.263074 -32.860820 36.203135
RightToeBase 8.364028 -0.000000 -0.000000
LeftUpLeg -37.612971 19.544512 25.088117
LeftLeg 0.886641 -0.000000 -0.000000
LeftFoot 5.426066 21.046083 -30.975246
LeftToeBase -2.471702 -0.000000 0.000000
Spine 72.181322 -3.565275 -2.671606
RightShoulder 7.770708 -14.151040 -25.684207
RightArm 18.092481 12.782257 49.927885
RightForeArm 14.872571 0.000000 84.530227
RightHand 2.140599 -0.000000 -8.273414
RightHandThumb1 -24.326973 -0.000000 -32.862282
LeftShoulder -15.461490 30.697563 12.529740
LeftArm 44.025799 1.467912 -42.740586
LeftForeArm 40.183123 -0.000000 42.589016
LeftHand -16.534274 -0.000000 -14.183808
LeftHandThumb1 -26.253704 0.000000 33.147579
Head 21.019950 12.182601 7.073257
690
root 3.203913 3.335823 -0.832087 -46.439681 -0.520245 -1.487269
RightUpLeg -34.303665 -32.015116 -31.933153
RightLeg 5.872238 -0.000000 -0.000000
RightFoot 1.219636 -32.895799 35.870836
RightToeBase 8.569940 -0.000000 -0.000000
LeftUpLeg -37.410048 19.470718 25.219605
LeftLeg 0.894454 -0.000000 -0.000000
LeftFoot 5.453541 21.007815 -31.047440
LeftToeBase -2.552095 -0.000000 0.000000
Spine 72.151209 -3.450052 -2.547118
RightShoulder 8.154155 -13.674602 -25.633139
RightArm 19.160016 13.182748 50.439774
RightForeArm 13.996971 0.000000 83.680275
RightHand 2.136372 -0.000000 -8.800350
RightHandThumb1 -24.326973 -0.000000 -32.862282
LeftShoulder -15.166392 30.219269 12.691066
LeftArm 44.965756 -0.417062 -44.774006
LeftForeArm 39.529325 -0.000000 40.852974
LeftHand -17.106116 -0.000000 -12.015407
LeftHandThumb1 -26.253704 0.000000 33.147579
Head 20.525526 12.000443 7.037512
691
root 3.195789 3.332014 -0.836778 -46.654490 -0.613210 -1.455347
RightUpLeg -34.423088 -32.035516 -31.847363
RightLeg 6.273561 -0.000000 -0.000000
RightFoot 1.142232 -32.968734 35.676749
RightToeBase 8.515868 -0.000000 -0.000000
LeftUpLeg -37.159097 19.471971 25.367611
LeftLeg 0.897183 -0.000000 -0.000000
LeftFoot 5.441570 21.008800 -31.127605
LeftToeBase -2.526382 -0.000000 0.000000
Spine 72.170849 -3.254918 -2.378824
RightShoulder 8.456337 -13.106133 -25.617625
RightArm 20.171466 13.345669 51.008292
RightForeArm 13.094136 0.000000 82.834426
RightHand 2.138785 -0.000000 -9.383847
RightHandThumb1 -24.326973 -0.000000 -32.862282
LeftShoulder -14.874595 29.745765 12.888891
LeftArm 45.922185 -2.223445 -46.851731
LeftForeArm 38.398242 -0.000000 39.400139
LeftHand -17.804910 0.000000 -9.920265
LeftHandThumb1 -26.253704 0.000000 33.147579
Head 19.950958 11.727096 7.045825
692
root 3.191951 3.331860 -0.840287 -46.875519 -0.667510 -1.444002
RightUpLeg -34.525888 -32.192562 -31.710829
RightLeg 6.638862 -0.000000 -0.000000
RightFoot 1.129454 -32.943711 35.354562
RightToeBase 8.428828 -0.000000 -0.000000
LeftUpLeg -36.907423 19.384618 25.524002
LeftLeg 0.898081 -0.000000 -0.000000
LeftFoot 5.351902 21.131141 -31.196356
LeftToeBase -2.486150 -0.000000 0.000000
Spine 72.201984 -3.130821 -2.265093
RightShoulder 8.807794 -12.550504 -25.616231
RightArm 21.117288 13.410359 51.503229
RightForeArm 12.335378 -0.000000 82.076791
RightHand 2.178428 -0.000000 -9.821888
RightHandThumb1 -24.326973 -0.000000 -32.862282
LeftShoulder -14.534031 29.297868 13.168734
LeftArm 46.944781 -4.141277 -49.444074
LeftForeArm 37.425697 -0.000000 37.948806
LeftHand -18.159476 0.000000 -8.333733
LeftHandThumb1 -26.253704 0.000000 33.147579
Head 19.377741 11.487840 6.988916
693
root 3.180485 3.328145 -0.848271 -47.051980 -0.799612 -1.393229
RightUpLeg -34.696021 -32.228430 -31.516098
RightLeg 6.940746 -0.000000 -0.000000
RightFoot 1.284398 -32.904471 34.483436
RightToeBase 8.523406 -0.000000 -0.000000
LeftUpLeg -36.711989 19.475897 25.656709
LeftLeg 0.955312 -0.000000 -0.000000
LeftFoot 5.313047 21.227854 -31.168365
LeftToeBase -2.479690 -0.000000 0.000000
Spine 72.194478 -2.885587 -2.087664
RightShoulder 9.126692 -11.985639 -25.620190
RightArm 22.060988 13.501956 52.224534
RightForeArm 11.390622 -0.000000 81.345562
RightHand 2.104468 -0.000000 -10.004302
RightHandThumb1 -24.326973 -0.000000 -32.862282
LeftShoulder -14.261776 28.984529 13.425060
LeftArm 48.158196 -5.922552 -51.938035
LeftForeArm 36.018202 0.000000 36.749979
LeftHand -18.765196 -0.000000 -6.532642
LeftHandThumb1 -26.253704 0.000000 33.147579
Head 18.755580 11.244799 7.017487
694
root 3.178143 3.333939 -0.857226 -47.274349 -0.855016 -1.365353
RightUpLeg -34.710496 -32.347062 -31.399673
RightLeg 7.117585 -0.000000 -0.000000
RightFoot 1.506263 -32.798489 33.672605
RightToeBase 8.238727 -0.000000 -0.000000
LeftUpLeg -36.440000 19.377150 25.808199
LeftLeg 0.946890 -0.000000 -0.000000
LeftFoot 5.198485 21.496176 -31.166563
LeftToeBase -2.387482 -0.000000 0.000000
Spine 72.288600 -2.745135 -1.970698
RightShoulder 9.438257 -11.436152 -25.737521
RightArm 22.945737 13.347006 52.822124
RightForeArm 10.713615 -0.000000 80.735971
RightHand 2.013915 -0.000000 -10.512827
RightHandThumb1 -24.326973 -0.000000 -32.862282
LeftShoulder -14.016957 28.661275 13.634023
LeftArm 49.330892 -7.495783 -54.270674
LeftForeArm 34.358085 -0.000000 35.800818
LeftHand -19.560582 0.000000 -4.364009
LeftHandThumb1 -26.253704 0.000000 33.147579
Head 18.031558 11.019087 6.934702
